# xmcd
#
# Track frame offsets:
#	150
#	12569
#	25148
#	37972
#	49638
#	61332
#	75035
#	88132
#	101093
#	111176
#	124297
#	137713
#	149208
#	160605
#	173523
#	185690
#	197613
#	209778
#	223358
#	235327
#
# Disc length: 3307
#
# Revision: 1
# Processed by: cddbd v1.5.1PL0 Copyright (c) Steve Scherf et al.
# Submitted via: CDex 1.51
# Normalized: r0:DSETVAR1,TDELIM( - )
#
DISCID=240ce914
DTITLE=Various Artist - The History Of Country and Western Music - Vol. 12
DYEAR=1900
DGENRE=Country
TTITLE0=Hank Williams - Move It On Over
TTITLE1=Paul Howard - Rootie Tootie
TTITLE2=Red Foley - Freight Train Boogie
TTITLE3=Pee Wee King - Ten Gallon Boogie
TTITLE4=Luke Wills - The Texas Special
TTITLE5=Merle Travis - Merle's Boogie Woogie
TTITLE6=Tex Williams - Smoke Smoke Smoke
TTITLE7=Sons Of The Pioneers - Cigareetes, Whiskey
TTITLE8=Johnny Tyler - Oakie Boogie
TTITLE9=Delmore Brothers - Barnyard Boogie
TTITLE10=Texas Tyler - My Bucket's Got A Hole In It
TTITLE11=Chet Atkins - Canned Heat
TTITLE12=Jimmy Wakely - Oklahoma Blues
TTITLE13=Ocie Stockard - Cow Town Boogie
TTITLE14=Jimmie Widener - Shuffletown
TTITLE15=Billy Hughes - Cocaine Blues
TTITLE16=Boots Woodall - Since You've Been Gone
TTITLE17=Jimmy Wyble - No More Blues
TTITLE18=Jimmie Widener - That's My Lindy Lou
TTITLE19=Ocie Stockard - Twin Guitar Boogie
EXTD=
EXTT0=
EXTT1=
EXTT2=
EXTT3=
EXTT4=
EXTT5=
EXTT6=
EXTT7=
EXTT8=
EXTT9=
EXTT10=
EXTT11=
EXTT12=
EXTT13=
EXTT14=
EXTT15=
EXTT16=
EXTT17=
EXTT18=
EXTT19=
PLAYORDER=
